<svg xmlns="http://www.w3.org/2000/svg" width="1200" height="700" viewBox="0 0 1200 700" role="img" aria-label="Inflation-regime difference estimates and HAC p-values">
<defs>
<filter id="shadow" x="-20%" y="-20%" width="140%" height="140%"><feDropShadow dx="0" dy="10" stdDeviation="16" flood-color="#000" flood-opacity="0.22"/></filter>
<linearGradient id="greenFill" x1="0" y1="0" x2="0" y2="1"><stop offset="0" stop-color="#65e3a2" stop-opacity="0.42"/><stop offset="1" stop-color="#65e3a2" stop-opacity="0.04"/></linearGradient>
<linearGradient id="blueFill" x1="0" y1="0" x2="0" y2="1"><stop offset="0" stop-color="#8fb7de" stop-opacity="0.42"/><stop offset="1" stop-color="#8fb7de" stop-opacity="0.04"/></linearGradient>
</defs>
<rect width="100%" height="100%" rx="24" fill="#07111b"/>
<rect x="1" y="1" width="1198" height="698" rx="23" fill="none" stroke="#274052"/>
<style>text{font-family:Inter,ui-sans-serif,system-ui,-apple-system,BlinkMacSystemFont,"Segoe UI",sans-serif}.label{fill:#9db0bd;font-size:18px}.small{fill:#9db0bd;font-size:15px}.value{fill:#eef8f3;font-size:20px;font-weight:650}.axis{stroke:#274052;stroke-width:1}.headline{fill:#eef8f3;font-size:22px;font-weight:650}.note{fill:#9db0bd;font-size:16px}</style>
<line class="axis" x1="110" y1="590.0" x2="1140" y2="590.0" opacity="0.55"/>
<text class="small" x="92" y="595.0" text-anchor="end">0</text>
<line class="axis" x1="110" y1="516.5" x2="1140" y2="516.5" opacity="0.55"/>
<text class="small" x="92" y="521.5" text-anchor="end">0.1</text>
<line class="axis" x1="110" y1="442.9" x2="1140" y2="442.9" opacity="0.55"/>
<text class="small" x="92" y="447.9" text-anchor="end">0.2</text>
<line class="axis" x1="110" y1="369.4" x2="1140" y2="369.4" opacity="0.55"/>
<text class="small" x="92" y="374.4" text-anchor="end">0.3</text>
<line class="axis" x1="110" y1="295.9" x2="1140" y2="295.9" opacity="0.55"/>
<text class="small" x="92" y="300.9" text-anchor="end">0.4</text>
<line class="axis" x1="110" y1="222.4" x2="1140" y2="222.4" opacity="0.55"/>
<text class="small" x="92" y="227.4" text-anchor="end">0.5</text>
<line class="axis" x1="110" y1="148.8" x2="1140" y2="148.8" opacity="0.55"/>
<text class="small" x="92" y="153.8" text-anchor="end">0.6</text>
<rect x="223.7" y="205.4" width="116" height="384.6" rx="7" fill="#65e3a2"/>
<text class="value" x="281.7" y="189.4" text-anchor="middle">Δ 0.52</text>
<text class="label" x="281.7" y="632" text-anchor="middle">Brent</text>
<text class="small" x="281.7" y="660" text-anchor="middle">p &lt; 0.05</text>
<rect x="567.0" y="429.1" width="116" height="160.9" rx="7" fill="#f4c978"/>
<text class="value" x="625.0" y="413.1" text-anchor="middle">Δ 0.22</text>
<text class="label" x="625.0" y="632" text-anchor="middle">Gold</text>
<text class="small" x="625.0" y="660" text-anchor="middle">p = 0.680</text>
<rect x="910.3" y="348.8" width="116" height="241.2" rx="7" fill="#8fb7de"/>
<text class="value" x="968.3" y="332.8" text-anchor="middle">Δ 0.33</text>
<text class="label" x="968.3" y="632" text-anchor="middle">Copper</text>
<text class="small" x="968.3" y="660" text-anchor="middle">p = 0.355</text>
</svg>
