<svg xmlns="http://www.w3.org/2000/svg" width="1200" height="700" viewBox="0 0 1200 700" role="img" aria-label="EIA oil inventory balance and Brent price outlook">
<defs>
<filter id="shadow" x="-20%" y="-20%" width="140%" height="140%"><feDropShadow dx="0" dy="10" stdDeviation="16" flood-color="#000" flood-opacity="0.22"/></filter>
<linearGradient id="greenFill" x1="0" y1="0" x2="0" y2="1"><stop offset="0" stop-color="#65e3a2" stop-opacity="0.42"/><stop offset="1" stop-color="#65e3a2" stop-opacity="0.04"/></linearGradient>
<linearGradient id="blueFill" x1="0" y1="0" x2="0" y2="1"><stop offset="0" stop-color="#8fb7de" stop-opacity="0.42"/><stop offset="1" stop-color="#8fb7de" stop-opacity="0.04"/></linearGradient>
</defs>
<rect width="100%" height="100%" rx="24" fill="#07111b"/>
<rect x="1" y="1" width="1198" height="698" rx="23" fill="none" stroke="#274052"/>
<style>text{font-family:Inter,ui-sans-serif,system-ui,-apple-system,BlinkMacSystemFont,"Segoe UI",sans-serif}.label{fill:#9db0bd;font-size:18px}.small{fill:#9db0bd;font-size:15px}.value{fill:#eef8f3;font-size:20px;font-weight:650}.axis{stroke:#274052;stroke-width:1}.headline{fill:#eef8f3;font-size:22px;font-weight:650}.note{fill:#9db0bd;font-size:16px}</style>
<text class="headline" x="70" y="54">Inventory balance</text>
<text class="small" x="70" y="78">Million barrels per day; draw is negative</text>
<line class="axis" x1="85" y1="555.0" x2="555" y2="555.0" opacity="0.55"/>
<text class="small" x="70" y="560.0" text-anchor="end">-6</text>
<line class="axis" x1="85" y1="447.5" x2="555" y2="447.5" opacity="0.55"/>
<text class="small" x="70" y="452.5" text-anchor="end">-3</text>
<line class="axis" x1="85" y1="340.0" x2="555" y2="340.0" opacity="0.55"/>
<text class="small" x="70" y="345.0" text-anchor="end">0</text>
<line class="axis" x1="85" y1="232.5" x2="555" y2="232.5" opacity="0.55"/>
<text class="small" x="70" y="237.5" text-anchor="end">3</text>
<line class="axis" x1="85" y1="125.0" x2="555" y2="125.0" opacity="0.55"/>
<text class="small" x="70" y="130.0" text-anchor="end">6</text>
<rect x="109.8" y="340.0" width="68" height="179.2" rx="6" fill="#8fb7de"/>
<text class="value" x="143.8" y="547.2" text-anchor="middle">-5.0</text>
<text class="label" x="143.8" y="593" text-anchor="middle">2Q26</text>
<rect x="227.2" y="340.0" width="68" height="78.8" rx="6" fill="#8fb7de"/>
<text class="value" x="261.2" y="446.8" text-anchor="middle">-2.2</text>
<text class="label" x="261.2" y="593" text-anchor="middle">3Q26</text>
<rect x="344.8" y="243.2" width="68" height="96.8" rx="6" fill="#65e3a2"/>
<text class="value" x="378.8" y="229.2" text-anchor="middle">+2.7</text>
<text class="label" x="378.8" y="593" text-anchor="middle">4Q26</text>
<rect x="462.2" y="160.8" width="68" height="179.2" rx="6" fill="#65e3a2"/>
<text class="value" x="496.2" y="146.8" text-anchor="middle">+5.0</text>
<text class="label" x="496.2" y="593" text-anchor="middle">2027</text>
<line x1="600" y1="90" x2="600" y2="620" stroke="#274052"/>
<text class="headline" x="650" y="54">Brent price outlook</text>
<text class="small" x="650" y="78">EIA quarterly averages, US dollars per barrel</text>
<line class="axis" x1="665" y1="515.9" x2="1115" y2="515.9" opacity="0.55"/>
<text class="small" x="650" y="520.9" text-anchor="end">$60</text>
<line class="axis" x1="665" y1="437.7" x2="1115" y2="437.7" opacity="0.55"/>
<text class="small" x="650" y="442.7" text-anchor="end">$70</text>
<line class="axis" x1="665" y1="359.5" x2="1115" y2="359.5" opacity="0.55"/>
<text class="small" x="650" y="364.5" text-anchor="end">$80</text>
<line class="axis" x1="665" y1="281.4" x2="1115" y2="281.4" opacity="0.55"/>
<text class="small" x="650" y="286.4" text-anchor="end">$90</text>
<line class="axis" x1="665" y1="203.2" x2="1115" y2="203.2" opacity="0.55"/>
<text class="small" x="650" y="208.2" text-anchor="end">$100</text>
<line class="axis" x1="665" y1="125.0" x2="1115" y2="125.0" opacity="0.55"/>
<text class="small" x="650" y="130.0" text-anchor="end">$110</text>
<path d="M 665.0 179.7 L 815.0 406.5 L 965.0 437.7 L 1115.0 476.8" fill="none" stroke="#f4c978" stroke-width="5" stroke-linecap="round" stroke-linejoin="round"/>
<circle cx="665.0" cy="179.7" r="8" fill="#07111b" stroke="#f4c978" stroke-width="4"/>
<text class="value" x="665.0" y="161.7" text-anchor="middle">$103</text>
<text class="label" x="665.0" y="593" text-anchor="middle">2Q26</text>
<circle cx="815.0" cy="406.5" r="8" fill="#07111b" stroke="#f4c978" stroke-width="4"/>
<text class="value" x="815.0" y="388.5" text-anchor="middle">$74</text>
<text class="label" x="815.0" y="593" text-anchor="middle">3Q26</text>
<circle cx="965.0" cy="437.7" r="8" fill="#07111b" stroke="#f4c978" stroke-width="4"/>
<text class="value" x="965.0" y="419.7" text-anchor="middle">$70</text>
<text class="label" x="965.0" y="593" text-anchor="middle">4Q26</text>
<circle cx="1115.0" cy="476.8" r="8" fill="#07111b" stroke="#f4c978" stroke-width="4"/>
<text class="value" x="1115.0" y="458.8" text-anchor="middle">$65</text>
<text class="label" x="1115.0" y="593" text-anchor="middle">2027</text>
</svg>
