<svg xmlns="http://www.w3.org/2000/svg" width="1200" height="700" viewBox="0 0 1200 700" role="img" aria-label="August oil-balance revision and Brent price outlook">
<defs>
<filter id="shadow" x="-20%" y="-20%" width="140%" height="140%"><feDropShadow dx="0" dy="10" stdDeviation="16" flood-color="#000" flood-opacity="0.22"/></filter>
<linearGradient id="greenFill" x1="0" y1="0" x2="0" y2="1"><stop offset="0" stop-color="#65e3a2" stop-opacity="0.42"/><stop offset="1" stop-color="#65e3a2" stop-opacity="0.04"/></linearGradient>
<linearGradient id="blueFill" x1="0" y1="0" x2="0" y2="1"><stop offset="0" stop-color="#8fb7de" stop-opacity="0.42"/><stop offset="1" stop-color="#8fb7de" stop-opacity="0.04"/></linearGradient>
</defs>
<rect width="100%" height="100%" rx="24" fill="#07111b"/>
<rect x="1" y="1" width="1198" height="698" rx="23" fill="none" stroke="#274052"/>
<style>text{font-family:Inter,ui-sans-serif,system-ui,-apple-system,BlinkMacSystemFont,"Segoe UI",sans-serif}.label{fill:#9db0bd;font-size:18px}.small{fill:#9db0bd;font-size:15px}.value{fill:#eef8f3;font-size:20px;font-weight:650}.axis{stroke:#274052;stroke-width:1}.headline{fill:#eef8f3;font-size:22px;font-weight:650}.note{fill:#9db0bd;font-size:16px}</style>
<text class="headline" x="70" y="54">3Q26 balance revision</text>
<text class="small" x="70" y="78">IEA implied balance, million barrels per day</text>
<line class="axis" x1="85" y1="519.2" x2="555" y2="519.2" opacity="0.55"/>
<text class="small" x="70" y="524.2" text-anchor="end">-2</text>
<line class="axis" x1="85" y1="429.6" x2="555" y2="429.6" opacity="0.55"/>
<text class="small" x="70" y="434.6" text-anchor="end">-1.5</text>
<line class="axis" x1="85" y1="340.0" x2="555" y2="340.0" opacity="0.55"/>
<text class="small" x="70" y="345.0" text-anchor="end">-1</text>
<line class="axis" x1="85" y1="250.4" x2="555" y2="250.4" opacity="0.55"/>
<text class="small" x="70" y="255.4" text-anchor="end">-0.5</text>
<line class="axis" x1="85" y1="160.8" x2="555" y2="160.8" opacity="0.55"/>
<text class="small" x="70" y="165.8" text-anchor="end">0</text>
<rect x="168.5" y="160.8" width="68" height="143.3" rx="6" fill="#8fb7de"/>
<text class="value" x="202.5" y="332.2" text-anchor="middle">-0.8</text>
<text class="label" x="202.5" y="593" text-anchor="middle">July OMR</text>
<rect x="403.5" y="160.8" width="68" height="322.5" rx="6" fill="#f29a9a"/>
<text class="value" x="437.5" y="511.3" text-anchor="middle">-1.8</text>
<text class="label" x="437.5" y="593" text-anchor="middle">August OMR</text>
<text class="note" x="90" y="625">Observed inventories fell 69 million barrels in July.</text>
<line x1="600" y1="90" x2="600" y2="620" stroke="#274052"/>
<text class="headline" x="650" y="54">Brent price outlook</text>
<text class="small" x="650" y="78">EIA August 2026 forecast, US dollars per barrel</text>
<line class="axis" x1="665" y1="555.0" x2="1115" y2="555.0" opacity="0.55"/>
<text class="small" x="650" y="560.0" text-anchor="end">$60</text>
<line class="axis" x1="665" y1="432.1" x2="1115" y2="432.1" opacity="0.55"/>
<text class="small" x="650" y="437.1" text-anchor="end">$70</text>
<line class="axis" x1="665" y1="309.3" x2="1115" y2="309.3" opacity="0.55"/>
<text class="small" x="650" y="314.3" text-anchor="end">$80</text>
<line class="axis" x1="665" y1="186.4" x2="1115" y2="186.4" opacity="0.55"/>
<text class="small" x="650" y="191.4" text-anchor="end">$90</text>
<path d="M 665.0 247.9 L 1115.0 444.4" fill="none" stroke="#f4c978" stroke-width="5" stroke-linecap="round" stroke-linejoin="round"/>
<circle cx="665.0" cy="247.9" r="8" fill="#07111b" stroke="#f4c978" stroke-width="4"/>
<text class="value" x="665.0" y="229.9" text-anchor="middle">$85</text>
<text class="label" x="665.0" y="593" text-anchor="middle">3Q26</text>
<circle cx="1115.0" cy="444.4" r="8" fill="#07111b" stroke="#f4c978" stroke-width="4"/>
<text class="value" x="1115.0" y="426.4" text-anchor="middle">$69</text>
<text class="label" x="1115.0" y="593" text-anchor="middle">2027</text>
<text class="note" x="665" y="625">Lower prices require production recovery and inventory rebuilding.</text>
</svg>
