<svg xmlns="http://www.w3.org/2000/svg" width="1200" height="700" viewBox="0 0 1200 700" role="img" aria-label="US Treasury 2s10s curve and policy-versus-fiscal steepener framework">
<defs>
<filter id="shadow" x="-20%" y="-20%" width="140%" height="140%"><feDropShadow dx="0" dy="10" stdDeviation="16" flood-color="#000" flood-opacity="0.22"/></filter>
<linearGradient id="greenFill" x1="0" y1="0" x2="0" y2="1"><stop offset="0" stop-color="#65e3a2" stop-opacity="0.42"/><stop offset="1" stop-color="#65e3a2" stop-opacity="0.04"/></linearGradient>
<linearGradient id="blueFill" x1="0" y1="0" x2="0" y2="1"><stop offset="0" stop-color="#8fb7de" stop-opacity="0.42"/><stop offset="1" stop-color="#8fb7de" stop-opacity="0.04"/></linearGradient>
</defs>
<rect width="100%" height="100%" rx="24" fill="#07111b"/>
<rect x="1" y="1" width="1198" height="698" rx="23" fill="none" stroke="#274052"/>
<style>text{font-family:Inter,ui-sans-serif,system-ui,-apple-system,BlinkMacSystemFont,"Segoe UI",sans-serif}.label{fill:#9db0bd;font-size:18px}.small{fill:#9db0bd;font-size:15px}.value{fill:#eef8f3;font-size:20px;font-weight:650}.axis{stroke:#274052;stroke-width:1}.headline{fill:#eef8f3;font-size:22px;font-weight:650}.note{fill:#9db0bd;font-size:16px}</style>
<text class="headline" x="70" y="54">The curve repriced, but the risks remain split</text>
<text class="small" x="70" y="78">Selected Treasury par yields; spread labels show 10Y minus 2Y</text>
<line class="axis" x1="90" y1="495.9" x2="590" y2="495.9" opacity="0.55"/>
<text class="small" x="76" y="500.9" text-anchor="end">3.4%</text>
<line class="axis" x1="90" y1="399.7" x2="590" y2="399.7" opacity="0.55"/>
<text class="small" x="76" y="404.7" text-anchor="end">3.8%</text>
<line class="axis" x1="90" y1="303.4" x2="590" y2="303.4" opacity="0.55"/>
<text class="small" x="76" y="308.4" text-anchor="end">4.2%</text>
<line class="axis" x1="90" y1="207.2" x2="590" y2="207.2" opacity="0.55"/>
<text class="small" x="76" y="212.2" text-anchor="end">4.6%</text>
<line x1="90" y1="105" x2="120" y2="105" stroke="#8fb7de" stroke-width="5" stroke-linecap="round"/>
<text class="label" x="132" y="111">2-year</text>
<line x1="235" y1="105" x2="265" y2="105" stroke="#f4c978" stroke-width="5" stroke-linecap="round"/>
<text class="label" x="277" y="111">10-year</text>
<polyline points="90.0,479.1 256.7,298.6 423.3,305.8 590.0,303.4" fill="none" stroke="#8fb7de" stroke-width="5" stroke-linejoin="round" stroke-linecap="round"/>
<circle cx="90.0" cy="479.1" r="7" fill="#07111b" stroke="#8fb7de" stroke-width="4"/>
<circle cx="256.7" cy="298.6" r="7" fill="#07111b" stroke="#8fb7de" stroke-width="4"/>
<circle cx="423.3" cy="305.8" r="7" fill="#07111b" stroke="#8fb7de" stroke-width="4"/>
<circle cx="590.0" cy="303.4" r="7" fill="#07111b" stroke="#8fb7de" stroke-width="4"/>
<polyline points="90.0,305.8 256.7,190.3 423.3,178.3 590.0,190.3" fill="none" stroke="#f4c978" stroke-width="5" stroke-linejoin="round" stroke-linecap="round"/>
<circle cx="90.0" cy="305.8" r="7" fill="#07111b" stroke="#f4c978" stroke-width="4"/>
<circle cx="256.7" cy="190.3" r="7" fill="#07111b" stroke="#f4c978" stroke-width="4"/>
<circle cx="423.3" cy="178.3" r="7" fill="#07111b" stroke="#f4c978" stroke-width="4"/>
<circle cx="590.0" cy="190.3" r="7" fill="#07111b" stroke="#f4c978" stroke-width="4"/>
<text class="label" x="90.0" y="558" text-anchor="middle">2 Jan</text>
<text class="small" x="90.0" y="584" text-anchor="middle">+72bp</text>
<text class="label" x="256.7" y="558" text-anchor="middle">29 Jul</text>
<text class="small" x="256.7" y="584" text-anchor="middle">+45bp</text>
<text class="label" x="423.3" y="558" text-anchor="middle">17 Aug</text>
<text class="small" x="423.3" y="584" text-anchor="middle">+53bp</text>
<text class="label" x="590.0" y="558" text-anchor="middle">27 Aug</text>
<text class="small" x="590.0" y="584" text-anchor="middle">+47bp</text>
<text class="value" x="580.0" y="331.4" text-anchor="end">4.20%</text>
<text class="value" x="580.0" y="174.3" text-anchor="end">4.67%</text>
<line x1="625" y1="100" x2="625" y2="620" stroke="#274052"/>
<text class="headline" x="675" y="118">Why a relative-value trade</text>
<rect x="675" y="150" width="455" height="180" rx="16" fill="#0b1723" stroke="#274052" filter="url(#shadow)"/>
<rect x="675" y="150" width="5" height="180" rx="3" fill="#8fb7de"/>
<text class="small" x="703" y="190" letter-spacing="1.5">FRONT END / POLICY</text>
<text class="headline" x="703" y="233">2Y: 4.20%</text>
<text class="note" x="703" y="272">Fed midpoint: 3.625%</text>
<text class="note" x="703" y="301">Payrolls: -23k in July</text>
<rect x="675" y="365" width="455" height="180" rx="16" fill="#0b1723" stroke="#274052" filter="url(#shadow)"/>
<rect x="675" y="365" width="5" height="180" rx="3" fill="#f4c978"/>
<text class="small" x="703" y="405" letter-spacing="1.5">LONG END / FISCAL</text>
<text class="headline" x="703" y="448">10Y: 4.67%</text>
<text class="note" x="703" y="487">3Q borrowing: $739bn</text>
<text class="note" x="703" y="516">FY27–28 funding gap: $1.45tn</text>
<text class="note" x="675" y="590">Buybacks support liquidity; Treasury says they do not</text>
<text class="note" x="675" y="618">materially reduce privately held net marketable borrowing.</text>
</svg>
