<svg xmlns="http://www.w3.org/2000/svg" width="1200" height="700" viewBox="0 0 1200 700" role="img" aria-label="Commodity-equity return sensitivities in lower and higher inflation regimes">
<defs>
<filter id="shadow" x="-20%" y="-20%" width="140%" height="140%"><feDropShadow dx="0" dy="10" stdDeviation="16" flood-color="#000" flood-opacity="0.22"/></filter>
<linearGradient id="greenFill" x1="0" y1="0" x2="0" y2="1"><stop offset="0" stop-color="#65e3a2" stop-opacity="0.42"/><stop offset="1" stop-color="#65e3a2" stop-opacity="0.04"/></linearGradient>
<linearGradient id="blueFill" x1="0" y1="0" x2="0" y2="1"><stop offset="0" stop-color="#8fb7de" stop-opacity="0.42"/><stop offset="1" stop-color="#8fb7de" stop-opacity="0.04"/></linearGradient>
</defs>
<rect width="100%" height="100%" rx="24" fill="#07111b"/>
<rect x="1" y="1" width="1198" height="698" rx="23" fill="none" stroke="#274052"/>
<style>text{font-family:Inter,ui-sans-serif,system-ui,-apple-system,BlinkMacSystemFont,"Segoe UI",sans-serif}.label{fill:#9db0bd;font-size:18px}.small{fill:#9db0bd;font-size:15px}.value{fill:#eef8f3;font-size:20px;font-weight:650}.axis{stroke:#274052;stroke-width:1}.headline{fill:#eef8f3;font-size:22px;font-weight:650}.note{fill:#9db0bd;font-size:16px}</style>
<line class="axis" x1="110" y1="595.0" x2="1140" y2="595.0" opacity="0.55"/>
<text class="small" x="92" y="600.0" text-anchor="end">-0.1</text>
<line class="axis" x1="110" y1="542.4" x2="1140" y2="542.4" opacity="0.55"/>
<text class="small" x="92" y="547.4" text-anchor="end">0</text>
<line class="axis" x1="110" y1="437.1" x2="1140" y2="437.1" opacity="0.55"/>
<text class="small" x="92" y="442.1" text-anchor="end">0.2</text>
<line class="axis" x1="110" y1="331.8" x2="1140" y2="331.8" opacity="0.55"/>
<text class="small" x="92" y="336.8" text-anchor="end">0.4</text>
<line class="axis" x1="110" y1="226.6" x2="1140" y2="226.6" opacity="0.55"/>
<text class="small" x="92" y="231.6" text-anchor="end">0.6</text>
<line class="axis" x1="110" y1="121.3" x2="1140" y2="121.3" opacity="0.55"/>
<text class="small" x="92" y="126.3" text-anchor="end">0.8</text>
<rect x="110" y="34" width="18" height="18" rx="3" fill="#8fb7de"/><text class="label" x="140" y="49">Lower inflation</text>
<rect x="310" y="34" width="18" height="18" rx="3" fill="#f4c978"/><text class="label" x="340" y="49">High inflation</text>
<rect x="239.7" y="542.4" width="72" height="15.9" rx="5" fill="#8fb7de"/>
<text class="value" x="275.7" y="586.2" text-anchor="middle">-0.03</text>
<rect x="287.7" y="282.9" width="72" height="259.4" rx="5" fill="#f4c978"/>
<text class="value" x="323.7" y="270.9" text-anchor="middle">0.49</text>
<text class="label" x="281.7" y="640" text-anchor="middle">Brent</text>
<rect x="583.0" y="385.7" width="72" height="156.7" rx="5" fill="#8fb7de"/>
<text class="value" x="619.0" y="373.7" text-anchor="middle">0.30</text>
<rect x="631.0" y="270.5" width="72" height="271.8" rx="5" fill="#f4c978"/>
<text class="value" x="667.0" y="258.5" text-anchor="middle">0.52</text>
<text class="label" x="625.0" y="640" text-anchor="middle">Gold</text>
<rect x="926.3" y="316.9" width="72" height="225.5" rx="5" fill="#8fb7de"/>
<text class="value" x="962.3" y="304.9" text-anchor="middle">0.43</text>
<rect x="974.3" y="144.2" width="72" height="398.2" rx="5" fill="#f4c978"/>
<text class="value" x="1010.3" y="132.2" text-anchor="middle">0.76</text>
<text class="label" x="968.3" y="640" text-anchor="middle">Copper</text>
</svg>
