<svg xmlns="http://www.w3.org/2000/svg" width="1200" height="700" viewBox="0 0 1200 700" role="img" aria-label="Robustness of inflation-regime effects across CPI thresholds">
<defs>
<filter id="shadow" x="-20%" y="-20%" width="140%" height="140%"><feDropShadow dx="0" dy="10" stdDeviation="16" flood-color="#000" flood-opacity="0.22"/></filter>
<linearGradient id="greenFill" x1="0" y1="0" x2="0" y2="1"><stop offset="0" stop-color="#65e3a2" stop-opacity="0.42"/><stop offset="1" stop-color="#65e3a2" stop-opacity="0.04"/></linearGradient>
<linearGradient id="blueFill" x1="0" y1="0" x2="0" y2="1"><stop offset="0" stop-color="#8fb7de" stop-opacity="0.42"/><stop offset="1" stop-color="#8fb7de" stop-opacity="0.04"/></linearGradient>
</defs>
<rect width="100%" height="100%" rx="24" fill="#07111b"/>
<rect x="1" y="1" width="1198" height="698" rx="23" fill="none" stroke="#274052"/>
<style>text{font-family:Inter,ui-sans-serif,system-ui,-apple-system,BlinkMacSystemFont,"Segoe UI",sans-serif}.label{fill:#9db0bd;font-size:18px}.small{fill:#9db0bd;font-size:15px}.value{fill:#eef8f3;font-size:20px;font-weight:650}.axis{stroke:#274052;stroke-width:1}.headline{fill:#eef8f3;font-size:22px;font-weight:650}.note{fill:#9db0bd;font-size:16px}</style>
<line class="axis" x1="115" y1="580.0" x2="1135" y2="580.0" opacity="0.55"/>
<text class="small" x="97" y="585.0" text-anchor="end">-0.2</text>
<line class="axis" x1="115" y1="484.8" x2="1135" y2="484.8" opacity="0.55"/>
<text class="small" x="97" y="489.8" text-anchor="end">0</text>
<line class="axis" x1="115" y1="389.5" x2="1135" y2="389.5" opacity="0.55"/>
<text class="small" x="97" y="394.5" text-anchor="end">0.2</text>
<line class="axis" x1="115" y1="294.3" x2="1135" y2="294.3" opacity="0.55"/>
<text class="small" x="97" y="299.3" text-anchor="end">0.4</text>
<line class="axis" x1="115" y1="199.0" x2="1135" y2="199.0" opacity="0.55"/>
<text class="small" x="97" y="204.0" text-anchor="end">0.6</text>
<line class="axis" x1="115" y1="103.8" x2="1135" y2="103.8" opacity="0.55"/>
<text class="small" x="97" y="108.8" text-anchor="end">0.8</text>
<text class="label" x="115.0" y="622" text-anchor="middle">2.68%</text>
<text class="label" x="455.0" y="622" text-anchor="middle">3%</text>
<text class="label" x="795.0" y="622" text-anchor="middle">3.5%</text>
<text class="label" x="1135.0" y="622" text-anchor="middle">4%</text>
<line x1="115" y1="35" x2="145" y2="35" stroke="#65e3a2" stroke-width="5" stroke-linecap="round"/>
<text class="label" x="157" y="41">Brent</text>
<polyline points="115.0,242.4 455.0,235.7 795.0,221.1 1135.0,204.9" fill="none" stroke="#65e3a2" stroke-width="4" stroke-linejoin="round" stroke-linecap="round"/>
<circle cx="115.0" cy="242.4" r="7" fill="#07111b" stroke="#65e3a2" stroke-width="4"/>
<text class="small" x="115.0" y="226.4" text-anchor="middle">p=0.02</text>
<circle cx="455.0" cy="235.7" r="7" fill="#07111b" stroke="#65e3a2" stroke-width="4"/>
<text class="small" x="455.0" y="219.7" text-anchor="middle">p=0.02</text>
<circle cx="795.0" cy="221.1" r="7" fill="#07111b" stroke="#65e3a2" stroke-width="4"/>
<text class="small" x="795.0" y="205.1" text-anchor="middle">p=0.02</text>
<circle cx="1135.0" cy="204.9" r="7" fill="#07111b" stroke="#65e3a2" stroke-width="4"/>
<text class="small" x="1135.0" y="188.9" text-anchor="middle">p=0.01</text>
<line x1="285" y1="35" x2="315" y2="35" stroke="#f4c978" stroke-width="5" stroke-linecap="round"/>
<text class="label" x="327" y="41">Gold</text>
<polyline points="115.0,311.5 455.0,380.6 795.0,543.3 1135.0,560.9" fill="none" stroke="#f4c978" stroke-width="4" stroke-linejoin="round" stroke-linecap="round"/>
<circle cx="115.0" cy="311.5" r="7" fill="#07111b" stroke="#f4c978" stroke-width="4"/>
<circle cx="455.0" cy="380.6" r="7" fill="#07111b" stroke="#f4c978" stroke-width="4"/>
<circle cx="795.0" cy="543.3" r="7" fill="#07111b" stroke="#f4c978" stroke-width="4"/>
<circle cx="1135.0" cy="560.9" r="7" fill="#07111b" stroke="#f4c978" stroke-width="4"/>
<line x1="455" y1="35" x2="485" y2="35" stroke="#8fb7de" stroke-width="5" stroke-linecap="round"/>
<text class="label" x="497" y="41">Copper</text>
<polyline points="115.0,555.2 455.0,328.5 795.0,147.3 1135.0,136.9" fill="none" stroke="#8fb7de" stroke-width="4" stroke-linejoin="round" stroke-linecap="round"/>
<circle cx="115.0" cy="555.2" r="7" fill="#07111b" stroke="#8fb7de" stroke-width="4"/>
<circle cx="455.0" cy="328.5" r="7" fill="#07111b" stroke="#8fb7de" stroke-width="4"/>
<circle cx="795.0" cy="147.3" r="7" fill="#07111b" stroke="#8fb7de" stroke-width="4"/>
<circle cx="1135.0" cy="136.9" r="7" fill="#07111b" stroke="#8fb7de" stroke-width="4"/>
</svg>
